<?xml version="1.0" standalone="no"?>
<!DOCTYPE svg PUBLIC "-//W3C//DTD SVG 20010904//EN"
 "http://www.w3.org/TR/2001/REC-SVG-20010904/DTD/svg10.dtd">
<svg version="1.0" xmlns="http://www.w3.org/2000/svg"
 width="640.000000pt" height="640.000000pt" viewBox="0 0 640.000000 640.000000"
 preserveAspectRatio="xMidYMid meet">
<metadata>
Created by potrace 1.14, written by Peter Selinger 2001-2017
</metadata>
<g transform="translate(0.000000,640.000000) scale(0.100000,-0.100000)"
fill="#000000" stroke="none">
<path d="M1953 5362 c-150 -114 -283 -215 -295 -224 -271 -203 -343 -259 -393
-307 -33 -31 -91 -81 -130 -111 -38 -30 -83 -68 -99 -85 -15 -16 -76 -81 -135
-144 l-106 -114 -38 -116 c-51 -156 -103 -361 -122 -486 -20 -126 -23 -179
-21 -315 2 -85 7 -166 11 -180 13 -46 13 -170 -1 -235 -25 -119 -86 -263 -189
-450 -36 -65 -156 -257 -181 -291 -13 -17 -24 -34 -24 -37 0 -9 -123 -170
-182 -238 l-48 -57 34 -28 c19 -16 70 -58 115 -94 44 -36 80 -69 81 -75 1 -21
209 -157 360 -236 328 -172 662 -259 1125 -294 44 -4 100 -8 125 -11 25 -2 65
-6 90 -8 131 -11 466 -54 645 -82 144 -22 232 -39 461 -88 39 -9 88 -18 110
-21 21 -4 102 -22 179 -40 77 -19 176 -42 220 -51 44 -9 87 -17 95 -19 8 -2
123 -26 255 -55 l240 -51 90 37 c321 132 811 381 947 482 80 59 406 282 463
316 33 20 89 55 125 77 138 87 319 190 555 316 60 32 79 47 77 60 -2 10 -29
74 -59 143 -52 117 -93 197 -198 395 -24 44 -64 120 -89 169 -59 112 -148 245
-201 300 -71 73 -277 362 -290 407 -3 13 -17 51 -31 84 -33 83 -51 171 -47
230 2 28 5 129 8 225 5 188 -9 292 -57 422 -32 89 -102 141 -251 189 -45 14
-566 125 -687 145 -14 3 -31 7 -39 10 -8 2 -30 7 -50 10 -20 3 -112 22 -206
41 -93 19 -181 37 -195 39 -14 3 -32 7 -40 9 -8 2 -28 7 -45 9 -96 17 -427 87
-530 112 -178 45 -381 110 -524 169 -114 47 -212 100 -416 225 -109 67 -203
123 -209 125 -6 2 -134 -90 -283 -203z"/>
</g>
</svg>
